<svg xmlns="http://www.w3.org/2000/svg" viewBox="0 0 213 34">
  <g fill="none">
    <path fill="#AA3C31" d="m.846 12.29-.52 1.919c-.073.355-.133.715-.182 1.079l-.136 1.675a15.943 15.943 0 0 0 1.4 7.044l5.035 6.262c.62.464 1.277.883 1.963 1.253l3.858 1.475c.307.073.617.139.931.194l5.618-.001a17 17 0 0 0 .82-.168l4.032-1.538c.453-.248.893-.517 1.318-.806l5.541-6.524A15.938 15.938 0 0 0 32 17.436l-.003-.225-.112-1.698a15.961 15.961 0 0 0-.174-1.11l-.489-1.905C29.141 6.078 23.113 1.436 16 1.436 8.964 1.436 2.989 5.978.846 12.29Z"/>
    <circle cx="16" cy="17.436" r="16" fill="#A83731"/>
    <path fill="#FFE47D" d="M2.88 8.79a.547.547 0 0 1-.669-.386L1.32 5.073a.547.547 0 1 1 1.056-.283l.892 3.331a.547.547 0 0 1-.386.67Z"/>
    <path fill="#FE9D09" d="M9.706 32.15 4.392 12.32c-.04.057-.081.114-.125.169a.643.643 0 0 1-.737.197 3.102 3.102 0 0 1-.194-.084l5.07 18.92c.422.228.856.438 1.3.628Z"/>
    <path fill="#FFE47D" d="M3.014 7.815a.642.642 0 0 0-.736.197 3.086 3.086 0 0 0-.575 2.734c.265.989.98 1.736 1.865 2.08a.64.64 0 0 0 .736-.196c.594-.742.84-1.747.575-2.735a3.086 3.086 0 0 0-1.865-2.08Z"/>
    <path fill="#FFCD53" d="M4.614 11.504a1.84 1.84 0 0 1-.77-2.87.382.382 0 0 1 .224-.135 3.107 3.107 0 0 0-1.054-.684.642.642 0 0 0-.736.197 3.086 3.086 0 0 0-.575 2.734c.265.988.98 1.736 1.865 2.08a.64.64 0 0 0 .736-.197c.264-.33.459-.71.57-1.12a.381.381 0 0 1-.26-.005Z"/>
    <path fill="#FFE47D" d="M12.503 25.873c-1.082 1.24-3.234 3.923-3.454 5.904l-.007.07c1.018.494 2.097.88 3.222 1.15.781-1.302 1.405-3.442.985-6.892a.427.427 0 0 0-.746-.232Z"/>
    <path fill="#FFCD53" d="M9.426 30.432c-.194.466-.33.922-.377 1.345l-.007.07c1.018.493 2.097.88 3.222 1.15.212-.353.412-.768.583-1.253-1.26.962-3.12.274-3.421-1.312Zm-7.539-6.575a.42.42 0 0 0-.48.15 16.06 16.06 0 0 0 5.037 6.263c.75.277 1.342.302 1.642.29a.425.425 0 0 0 .35-.209c.241-.408.605-1.465-.605-3.108-1.181-1.605-4.387-2.854-5.944-3.386Z"/>
    <path fill="#FFB629" d="M6.832 26.267c.47 1.345-.461 2.69-1.767 2.848.437.41.897.795 1.378 1.154.75.278 1.343.303 1.643.292a.425.425 0 0 0 .35-.21c.241-.408.605-1.465-.605-3.108-.252-.343-.597-.67-.999-.976Z"/>
    <path fill="#FFE47D" d="M12.034 21.57a.427.427 0 0 0-.746-.232c-1.082 1.24-3.234 3.924-3.454 5.904-.226 2.029.617 2.762 1.03 2.995.126.072.28.074.408.006.772-.406 3.535-2.323 2.762-8.672Z"/>
    <path fill="#FFCD53" d="M7.834 27.242c.047-.423.183-.878.377-1.345.301 1.586 2.16 2.274 3.42 1.312-.7 1.991-1.893 2.788-2.359 3.034a.426.426 0 0 1-.409-.006c-.412-.233-1.255-.967-1.03-2.995ZM.197 19.87a.427.427 0 0 1 .53-.574c1.556.532 4.762 1.78 5.943 3.385 1.21 1.644.846 2.7.606 3.109a.425.425 0 0 1-.351.21c-.872.033-4.223-.245-6.728-6.13Z"/>
    <path fill="#FFB629" d="M6.67 22.681c-.252-.343-.598-.669-.999-.976.532 1.525-.734 3.05-2.307 2.847 1.603 1.374 3.034 1.468 3.56 1.447a.425.425 0 0 0 .352-.21c.24-.407.604-1.464-.606-3.108Z"/>
    <path fill="#FFE47D" d="M10.812 17.009a.427.427 0 0 0-.746-.232C8.984 18.016 6.832 20.7 6.611 22.68c-.226 2.029.618 2.762 1.03 2.996.127.071.28.073.409.005.772-.406 3.534-2.323 2.762-8.672Z"/>
    <path fill="#FFCD53" d="M6.611 22.68c.048-.423.183-.878.377-1.344.302 1.586 2.161 2.274 3.421 1.311-.7 1.992-1.893 2.789-2.36 3.034a.426.426 0 0 1-.408-.005c-.412-.234-1.256-.967-1.03-2.996ZM.144 15.288c-.074.55-.12 1.109-.136 1.675 2.24 4.292 4.934 4.51 5.68 4.48a.395.395 0 0 0 .326-.195c.223-.379.562-1.361-.563-2.89-1.046-1.42-3.797-2.54-5.307-3.07Z"/>
    <path fill="#FFB629" d="M5.45 18.359c-.234-.319-.555-.622-.928-.908.494 1.417-.682 2.835-2.144 2.646 1.49 1.278 2.82 1.365 3.31 1.346a.396.396 0 0 0 .326-.195c.223-.379.562-1.361-.563-2.89Z"/>
    <path fill="#FFE47D" d="M9.358 13.086a.397.397 0 0 0-.693-.216c-1.006 1.152-3.007 3.647-3.212 5.488-.21 1.886.574 2.567.957 2.784.118.067.26.069.38.006.718-.378 3.286-2.16 2.568-8.062Z"/>
    <path fill="#FFCD53" d="M5.453 18.358c.044-.393.17-.816.35-1.25.281 1.474 2.01 2.114 3.18 1.22-.651 1.85-1.76 2.592-2.193 2.82a.395.395 0 0 1-.38-.006c-.383-.217-1.167-.898-.957-2.784ZM.846 12.29a15.87 15.87 0 0 0-.52 1.919c1.774 2.804 3.727 2.955 4.302 2.933a.333.333 0 0 0 .275-.164c.188-.32.473-1.148-.474-2.435-.702-.952-2.313-1.744-3.583-2.254Z"/>
    <path fill="#FFB629" d="M4.429 14.543a3.93 3.93 0 0 0-.783-.764c.417 1.193-.575 2.388-1.806 2.229 1.255 1.076 2.376 1.15 2.788 1.134a.333.333 0 0 0 .275-.164c.188-.32.473-1.148-.474-2.435Z"/>
    <path fill="#FFE47D" d="M7.72 10.1a.334.334 0 0 0-.584-.181c-.847.97-2.533 3.072-2.706 4.623-.177 1.59.484 2.163.807 2.346.1.056.22.058.32.005.605-.318 2.768-1.82 2.163-6.792Z"/>
    <path fill="#FFCD53" d="M4.43 14.542a3.96 3.96 0 0 1 .296-1.053c.236 1.242 1.692 1.781 2.68 1.028-.55 1.56-1.484 2.183-1.849 2.376a.333.333 0 0 1-.32-.005c-.323-.183-.983-.757-.807-2.346Z"/>
    <path fill="#FFE47D" d="M29.119 9.017a.547.547 0 0 1-.386-.67l.892-3.33a.547.547 0 0 1 1.056.283l-.893 3.33a.546.546 0 0 1-.669.387Z"/>
    <path fill="#FE9D09" d="m23.665 31.484 4.998-18.655c-.063.03-.128.058-.193.084a.643.643 0 0 1-.737-.197 3.118 3.118 0 0 1-.125-.17L22.363 32.12c.445-.193.88-.405 1.302-.636Z"/>
    <path fill="#FFE47D" d="M29.722 8.239a.643.643 0 0 0-.736-.197 3.086 3.086 0 0 0-1.865 2.08 3.086 3.086 0 0 0 .575 2.734c.176.22.473.3.736.198a3.086 3.086 0 0 0 1.865-2.08 3.086 3.086 0 0 0-.575-2.735Z"/>
    <path fill="#FFCD53" d="M29.263 12.234a1.84 1.84 0 0 1 .769-2.87.382.382 0 0 1 .26-.005 3.108 3.108 0 0 0-.57-1.12.643.643 0 0 0-.736-.197 3.086 3.086 0 0 0-1.865 2.08 3.086 3.086 0 0 0 .575 2.734c.176.22.473.3.736.198a3.107 3.107 0 0 0 1.054-.685.38.38 0 0 1-.223-.135Zm-9.753 13.87a.427.427 0 0 0-.745.232c-.399 3.273.143 5.369.866 6.686a15.884 15.884 0 0 0 3.312-1.167c-.308-1.964-2.378-4.544-3.433-5.751Z"/>
    <path fill="#FFB629" d="M22.588 30.663c-.302 1.586-2.161 2.274-3.421 1.311.139.395.297.742.465 1.048a15.882 15.882 0 0 0 3.312-1.167 5.296 5.296 0 0 0-.356-1.192Z"/>
    <path fill="#FFCD53" d="M19.98 21.801a.427.427 0 0 1 .745-.232c1.082 1.239 3.234 3.923 3.455 5.903.226 2.029-.618 2.762-1.03 2.996a.425.425 0 0 1-.409.005c-.771-.406-3.534-2.323-2.761-8.672Z"/>
    <path fill="#FFB629" d="M24.18 27.472c-.047-.423-.183-.878-.377-1.344-.302 1.586-2.16 2.274-3.421 1.311.7 1.992 1.893 2.789 2.36 3.034a.426.426 0 0 0 .408-.006c.412-.233 1.256-.966 1.03-2.995Z"/>
    <path fill="#FFE47D" d="M30.126 24.088c-1.557.532-4.762 1.78-5.944 3.385-1.21 1.644-.845 2.7-.605 3.109a.425.425 0 0 0 .35.21 3.98 3.98 0 0 0 1.056-.114 16.065 16.065 0 0 0 5.541-6.524.417.417 0 0 0-.398-.066Z"/>
    <path fill="#FFCD53" d="M25.181 26.497c-.401.307-.746.633-.999.976-1.21 1.644-.846 2.7-.605 3.109a.425.425 0 0 0 .35.21 4 4 0 0 0 1.056-.114 16.066 16.066 0 0 0 1.745-1.372c-1.187-.273-1.989-1.541-1.547-2.809Zm-3.979-9.257a.427.427 0 0 1 .745-.233c1.083 1.24 3.234 3.924 3.455 5.904.226 2.029-.618 2.762-1.03 2.995a.425.425 0 0 1-.408.006c-.772-.406-3.535-2.323-2.762-8.672Z"/>
    <path fill="#FFB629" d="M25.402 22.911c-.047-.423-.183-.878-.377-1.345-.302 1.586-2.16 2.274-3.42 1.312.7 1.991 1.892 2.788 2.359 3.034a.426.426 0 0 0 .408-.006c.412-.233 1.256-.967 1.03-2.995Z"/>
    <path fill="#FFE47D" d="M31.768 20.1a.427.427 0 0 0-.53-.574c-1.557.532-4.762 1.78-5.943 3.386-1.21 1.643-.846 2.7-.606 3.108a.426.426 0 0 0 .35.21c.872.034 4.223-.245 6.729-6.13Z"/>
    <path fill="#FFCD53" d="M25.294 22.912c.253-.343.598-.67 1-.976-.532 1.524.734 3.05 2.306 2.846-1.603 1.374-3.034 1.468-3.56 1.448a.425.425 0 0 1-.351-.21c-.24-.408-.605-1.465.605-3.108Zm-2.638-9.596a.397.397 0 0 1 .693-.215c1.006 1.151 3.006 3.647 3.211 5.488.21 1.885-.574 2.567-.957 2.784a.395.395 0 0 1-.38.005c-.717-.377-3.285-2.16-2.567-8.062Z"/>
    <path fill="#FFB629" d="M26.56 18.589c-.043-.394-.17-.817-.35-1.25-.28 1.474-2.009 2.114-3.18 1.219.651 1.851 1.76 2.592 2.193 2.82.12.063.262.061.38-.005.383-.217 1.167-.899.957-2.784Z"/>
    <path fill="#FFE47D" d="M31.997 17.21a16.142 16.142 0 0 0-.113-1.697c-1.506.529-4.272 1.651-5.321 3.076-1.125 1.528-.787 2.51-.563 2.89.068.117.19.19.326.195.744.029 3.433-.188 5.67-4.463Z"/>
    <path fill="#FFCD53" d="M26.563 18.59c.234-.32.555-.623.928-.908-.494 1.417.683 2.835 2.145 2.646-1.49 1.277-2.82 1.365-3.31 1.346a.396.396 0 0 1-.326-.195c-.224-.38-.562-1.362.563-2.89Zm-2.27-8.259a.334.334 0 0 1 .584-.182c.848.97 2.533 3.073 2.706 4.624.177 1.589-.484 2.163-.806 2.346a.333.333 0 0 1-.32.004c-.605-.318-2.769-1.82-2.164-6.792Z"/>
    <path fill="#FFB629" d="M27.583 14.773a3.932 3.932 0 0 0-.295-1.053c-.237 1.242-1.693 1.78-2.68 1.027.55 1.56 1.483 2.184 1.848 2.376a.334.334 0 0 0 .32-.004c.323-.183.984-.757.807-2.346Z"/>
    <path fill="#FFE47D" d="M31.222 12.498c-1.278.508-2.926 1.31-3.637 2.276-.948 1.287-.663 2.115-.475 2.434.058.098.162.16.276.164.577.023 2.545-.13 4.325-2.97a15.889 15.889 0 0 0-.489-1.904Z"/>
    <path fill="#FFCD53" d="M27.585 14.773c.198-.268.468-.524.782-.764-.416 1.194.575 2.389 1.807 2.23-1.255 1.076-2.376 1.15-2.788 1.133a.333.333 0 0 1-.276-.164c-.188-.32-.473-1.147.475-2.435Zm-15.65-6.507a.594.594 0 0 1-.594-.594V4.387a.594.594 0 0 1 1.188 0v3.285a.594.594 0 0 1-.594.594Z"/>
    <path fill="#FFE47D" d="M20.056 8.266a.594.594 0 0 1-.594-.594V4.387a.594.594 0 0 1 1.188 0v3.285a.594.594 0 0 1-.594.594Zm-4.06-3.331a.594.594 0 0 1-.594-.594V.594a.594.594 0 0 1 1.188 0v3.747a.594.594 0 0 1-.594.594Z"/>
    <path fill="#FE9D09" d="M15.581 9.207a3.382 3.382 0 0 1-.18-.142v24.359a16.24 16.24 0 0 0 1.189 0V9.064c-.059.05-.118.098-.18.143a.698.698 0 0 1-.829 0Z"/>
    <path fill="#FFE47D" d="M16.41 3.949a.698.698 0 0 0-.829 0 3.354 3.354 0 0 0-1.372 2.708c0 1.112.54 2.097 1.372 2.709a.698.698 0 0 0 .829 0 3.354 3.354 0 0 0 1.372-2.709c0-1.112-.54-2.097-1.372-2.708Z"/>
    <path fill="#FFCD53" d="M17.051 8.272a2 2 0 0 1 0-3.23.415.415 0 0 1 .273-.078 3.378 3.378 0 0 0-.914-1.015.698.698 0 0 0-.829 0 3.354 3.354 0 0 0-1.372 2.708c0 1.112.54 2.097 1.372 2.709a.698.698 0 0 0 .829 0c.37-.272.681-.618.914-1.015a.415.415 0 0 1-.273-.08Zm-6.336 17.302a.464.464 0 0 0-.717.453c.563 3.975 1.948 6.066 3.195 7.164a16.09 16.09 0 0 0 2.807.245c.083 0 .166-.002.248-.003.19-.566.23-1.416-.246-2.634-.789-2.017-3.803-4.229-5.287-5.225Z"/>
    <path fill="#FFB629" d="M15.228 29.494c.13 1.75-1.629 2.994-3.222 2.338a7.22 7.22 0 0 0 1.189 1.359c.91.16 1.848.245 2.805.245.083 0 .166-.002.248-.003.19-.566.23-1.416-.246-2.634-.169-.43-.44-.87-.774-1.305Z"/>
    <path fill="#FFE47D" d="M21.292 25.574c-1.485.996-4.499 3.208-5.287 5.225-.477 1.218-.436 2.068-.247 2.634.08.001.161.003.242.003a16.1 16.1 0 0 0 2.815-.247c1.247-1.098 2.631-3.189 3.194-7.162a.464.464 0 0 0-.717-.453Z"/>
    <path fill="#FFCD53" d="M16.779 29.494c-.335.434-.606.874-.774 1.305-.477 1.218-.436 2.068-.247 2.634.08.001.161.003.242.003.96 0 1.9-.085 2.813-.246a7.244 7.244 0 0 0 1.188-1.357c-1.594.655-3.352-.59-3.222-2.34Zm-6.781-8.569a.464.464 0 0 1 .717-.453c1.484.996 4.498 3.208 5.287 5.225.808 2.066.128 3.073-.239 3.433a.462.462 0 0 1-.427.122c-.925-.21-4.363-1.445-5.338-8.327Z"/>
    <path fill="#FFB629" d="M16.002 25.697c-.169-.43-.44-.87-.774-1.305.13 1.75-1.629 2.994-3.222 2.339 1.296 1.893 2.772 2.394 3.33 2.52a.462.462 0 0 0 .427-.12c.367-.361 1.047-1.368.239-3.434Z"/>
    <path fill="#FFE47D" d="M22.009 20.925a.464.464 0 0 0-.717-.453c-1.485.996-4.499 3.208-5.287 5.225-.808 2.066-.129 3.073.238 3.433a.462.462 0 0 0 .428.122c.924-.21 4.363-1.445 5.338-8.327Z"/>
    <path fill="#FFCD53" d="M16.005 25.697c.168-.43.439-.87.774-1.305-.13 1.75 1.628 2.994 3.222 2.339-1.296 1.893-2.772 2.394-3.33 2.52a.462.462 0 0 1-.428-.12c-.367-.361-1.046-1.368-.238-3.434Zm-6.007-9.904a.464.464 0 0 1 .717-.453c1.484.996 4.498 3.208 5.287 5.225.808 2.066.128 3.073-.239 3.433a.462.462 0 0 1-.427.121c-.925-.209-4.363-1.444-5.338-8.326Z"/>
    <path fill="#FFB629" d="M16.002 20.565c-.169-.43-.44-.87-.774-1.305.13 1.75-1.629 2.994-3.222 2.339 1.296 1.893 2.772 2.394 3.33 2.52a.462.462 0 0 0 .427-.12c.367-.361 1.047-1.368.239-3.434Z"/>
    <path fill="#FFE47D" d="M22.009 15.793a.464.464 0 0 0-.717-.453c-1.485.996-4.499 3.208-5.287 5.225-.808 2.066-.129 3.073.238 3.433a.462.462 0 0 0 .428.121c.924-.209 4.363-1.444 5.338-8.326Z"/>
    <path fill="#FFCD53" d="M16.005 20.565c.168-.43.439-.87.774-1.305-.13 1.75 1.628 2.994 3.222 2.339-1.296 1.893-2.772 2.394-3.33 2.52a.462.462 0 0 1-.428-.12c-.367-.361-1.046-1.368-.238-3.434Zm-5.585-9.299a.431.431 0 0 1 .667-.421c1.38.926 4.182 2.982 4.915 4.857.75 1.92.12 2.856-.222 3.192a.43.43 0 0 1-.397.112c-.86-.194-4.056-1.342-4.962-7.74Z"/>
    <path fill="#FFB629" d="M16.002 15.702c-.157-.4-.408-.81-.72-1.213.12 1.626-1.513 2.783-2.995 2.174 1.205 1.76 2.577 2.226 3.096 2.343a.43.43 0 0 0 .397-.112c.341-.336.973-1.272.222-3.192Z"/>
    <path fill="#FFE47D" d="M21.586 11.266a.431.431 0 0 0-.667-.421c-1.38.926-4.181 2.982-4.914 4.857-.751 1.92-.12 2.856.221 3.192a.43.43 0 0 0 .398.112c.86-.194 4.056-1.342 4.962-7.74Z"/>
    <path fill="#FFCD53" d="M16.005 15.702c.156-.4.408-.81.72-1.213-.121 1.626 1.513 2.783 2.994 2.174-1.204 1.76-2.576 2.226-3.095 2.343a.43.43 0 0 1-.398-.112c-.34-.336-.972-1.272-.221-3.192ZM11.3 7.672a.363.363 0 0 1 .562-.355c1.162.78 3.523 2.513 4.14 4.092.633 1.618.1 2.407-.187 2.69a.362.362 0 0 1-.334.094c-.724-.164-3.418-1.131-4.181-6.521Z"/>
    <path fill="#FFB629" d="M16.002 11.41a4.273 4.273 0 0 0-.606-1.023c.101 1.37-1.275 2.345-2.523 1.832 1.015 1.482 2.17 1.875 2.608 1.974a.362.362 0 0 0 .334-.095c.288-.282.82-1.07.187-2.689Z"/>
    <path fill="#FFE47D" d="M20.707 7.672a.363.363 0 0 0-.562-.355c-1.162.78-3.523 2.513-4.14 4.092-.633 1.618-.101 2.407.186 2.69a.362.362 0 0 0 .335.094c.724-.164 3.417-1.131 4.18-6.521Z"/>
    <path fill="#FFCD53" d="M16.004 11.41c.132-.338.344-.683.607-1.023-.102 1.37 1.275 2.345 2.523 1.832-1.015 1.482-2.17 1.875-2.608 1.974a.362.362 0 0 1-.335-.095c-.287-.282-.82-1.07-.187-2.689Z"/>
    <path fill="#A83731" d="M46.648 29v-8.288h4L54.2 29h5.664l-4.16-9.408c2.624-1.344 3.936-3.52 3.936-6.592 0-4.896-3.264-7.68-9.024-7.68h-9.152V29h5.184Zm0-19.072h3.968c2.304 0 3.552 1.088 3.552 3.072 0 2.016-1.312 3.168-3.584 3.168h-3.936v-6.24ZM68.664 5.32H63.48V29h5.184zm15.168 24.064c5.92 0 10.336-3.488 11.168-8.768h-5.376c-.64 2.336-2.784 3.776-5.696 3.776-3.808 0-6.176-2.784-6.176-7.232 0-4.512 2.336-7.232 6.176-7.232 2.848 0 4.864 1.344 5.568 3.712h5.472c-.736-5.312-4.992-8.704-10.912-8.704-7.072 0-11.776 4.864-11.776 12.256 0 7.488 4.448 12.192 11.552 12.192ZM113.496 29v-4.8h-9.856v-4.896h8.736V14.76h-8.736v-4.64h9.856v-4.8h-15.04V29zm2.432-18.88h6.72V29h5.184V10.12h6.72v-4.8h-18.624zM138.808 29l1.696-4.992h7.648L149.816 29h5.504l-8.416-23.68h-5.056L133.4 29h5.408Zm4.896-14.4c.288-.864.544-1.76.64-2.304.096.576.384 1.504.64 2.304l1.696 5.056h-4.672l1.696-5.056ZM158.072 29h9.856c5.12 0 7.936-2.336 7.936-6.528 0-2.688-1.248-4.512-3.584-5.28 2.144-.928 3.296-2.784 3.296-5.312 0-4.064-2.88-6.56-7.648-6.56h-9.856V29Zm9.312-19.136c1.888 0 2.88.864 2.88 2.528 0 1.696-1.024 2.624-2.88 2.624h-4.128V9.864h4.128Zm.256 9.504c1.888 0 2.912.864 2.912 2.464 0 1.76-.992 2.624-2.912 2.624h-4.384v-5.088h4.384ZM184.536 5.32h-5.184V29h14.528v-4.8h-9.344zM212.184 29v-4.8h-9.856v-4.896h8.736V14.76h-8.736v-4.64h9.856v-4.8h-15.04V29z"/>
  </g>
</svg>