<?xml version="1.0" encoding="UTF-8"?>
<svg width="213px" height="34px" viewBox="0 0 213 34" version="1.1" xmlns="http://www.w3.org/2000/svg" xmlns:xlink="http://www.w3.org/1999/xlink">
    <title>ricetable-logo</title>
    <g id="Page-1" stroke="none" stroke-width="1" fill="none" fill-rule="evenodd">
        <g id="Medium" transform="translate(-310.000000, -354.000000)" fill-rule="nonzero">
            <g id="ricetable-logo" transform="translate(310.000000, 354.000000)">
                <g id="wheat-2">
                    <path d="M0.84602873,12.2894571 L0.32567698,14.2089725 C0.252861694,14.5642981 0.192846225,14.9242603 0.144063248,15.287749 L0.00751009679,16.9632842 C0.00293873353,17.1204738 0,17.2780552 0,17.4364203 C0,19.7784603 0.503372401,22.002951 1.40758805,24.007755 L6.44274878,30.2692819 C7.06393174,30.7326875 7.71992237,31.1518162 8.40608399,31.5224885 L12.2637921,32.9966878 C12.5709878,33.0702214 12.8813833,33.1355266 13.1951748,33.191036 L18.8132496,33.1895993 C19.0887722,33.1407511 19.3618132,33.0848498 19.6323073,33.0220262 L23.6650987,31.4836972 C24.1183167,31.235864 24.5581471,30.9668066 24.9833492,30.6777658 L30.5243639,24.1543651 C31.470832,22.1115535 32,19.8359942 32,17.4364856 C32,17.3611234 31.9981715,17.2861531 31.9971266,17.2110521 L31.8845404,15.5131172 L31.8845404,15.5130519 C31.8396758,15.1386572 31.7816848,14.7683115 31.7114164,14.4023412 L31.2221499,12.4983684 C29.1408735,6.07860704 23.1130086,1.43645295 15.999902,1.43645295 C8.96398623,1.43645295 2.98901852,5.97797174 0.84602873,12.2894571 Z" id="Path" fill="#AA3C31"></path>
                    <circle id="Oval" fill="#A83731" cx="15.999902" cy="17.436355" r="15.999902"></circle>
                    <path d="M2.88080783,8.79033973 C2.58922015,8.86844474 2.28953464,8.69545129 2.21142963,8.40386362 L1.31890361,5.07303773 C1.2407986,4.78145006 1.41379205,4.48176455 1.70537972,4.40365954 C1.99696739,4.32555453 2.2966529,4.49854798 2.37475791,4.79013565 L3.26728394,8.12096154 C3.34538894,8.4124839 3.1723955,8.71216942 2.88080783,8.79033973 Z" id="Path" fill="#FFE47D"></path>
                    <path d="M9.70585318,32.1499407 L4.39223113,12.3191056 C4.35206844,12.3769007 4.31059964,12.4337816 4.26651864,12.4887685 C4.09012932,12.7089776 3.79292541,12.78865 3.53007202,12.6861208 C3.4644403,12.6605212 3.40004939,12.6319828 3.33637683,12.6020077 L8.40608399,31.5223578 C8.82821674,31.7504689 9.2619085,31.9598373 9.70585318,32.1499407 Z" id="Path" fill="#FE9D09"></path>
                    <path d="M3.01409572,7.81481081 C2.75124233,7.71228166 2.45403841,7.79188869 2.27764909,8.01216309 C1.68363309,8.75376882 1.43808558,9.75816264 1.70289812,10.7463608 C1.96771067,11.7345589 2.68254127,12.481585 3.56775311,12.8268535 C3.8306065,12.9293826 4.12781042,12.8497103 4.30419974,12.6295012 C4.89821574,11.8878302 5.14376325,10.8834364 4.87895071,9.89530354 C4.61420347,8.90717071 3.89937287,8.16007935 3.01409572,7.81481081 L3.01409572,7.81481081 Z" id="Path" fill="#FFE47D"></path>
                    <path d="M4.61368103,11.5043581 C4.0860151,11.2985814 3.65989874,10.8532654 3.5021214,10.2642126 C3.34427876,9.67522505 3.49069299,9.07650707 3.84471242,8.63445624 C3.90250752,8.56229401 3.98231046,8.51658038 4.06825209,8.49914389 C3.76673803,8.20122162 3.40742887,7.96814739 3.01409572,7.8147455 C2.75124233,7.71221636 2.45403841,7.79182338 2.27764909,8.01209779 C1.68363309,8.75370352 1.43808558,9.75809733 1.70289812,10.7462955 C1.96771067,11.7344936 2.68254127,12.4815197 3.56775311,12.8267882 C3.8306065,12.9293173 4.12781042,12.849645 4.30419974,12.6294359 C4.56809801,12.2999059 4.76277278,11.918393 4.87490179,11.5096478 C4.79176828,11.5376637 4.69981857,11.5379903 4.61368103,11.5043581 L4.61368103,11.5043581 Z" id="Path" fill="#FFCD53"></path>
                    <path d="M12.5034622,25.8733283 C11.4212899,27.1123637 9.26935329,29.796407 9.04868706,31.7767869 C9.04600955,31.8009498 9.044181,31.8240025 9.04176471,31.8478389 C10.0603298,32.3405013 11.1393021,32.7276304 12.2641187,32.9966878 C13.0450381,31.6952207 13.6685721,29.5545166 13.2487903,26.1053577 C13.2041216,25.7374282 12.7473118,25.5941487 12.5034622,25.8733283 L12.5034622,25.8733283 Z" id="Path" fill="#FFE47D"></path>
                    <path d="M9.42575922,30.4322183 C9.2316069,30.8984974 9.09583741,31.3537398 9.04875236,31.7767869 C9.04607485,31.8009498 9.04424631,31.8240025 9.04189532,31.8478389 C10.0602644,32.340436 11.1391062,32.7274998 12.2637921,32.9965572 C12.4755769,32.6436479 12.6758679,32.2294824 12.8468369,31.7437424 C11.5864467,32.7062756 9.72759981,32.0180895 9.42575922,30.4322183 L9.42575922,30.4322183 Z" id="Path" fill="#FFCD53"></path>
                    <path d="M1.88745059,23.8574224 C1.69480028,23.7915948 1.51077025,23.8686549 1.40758805,24.0076897 C2.53201281,26.50065 4.27644503,28.6536968 6.44444671,30.2704574 C7.1942809,30.5472208 7.78633775,30.5724286 8.08569673,30.5606736 C8.2311967,30.5549921 8.36311318,30.4767565 8.43690804,30.3512399 C8.67696992,29.9431478 9.04104635,28.8863792 7.8310718,27.2425822 C6.64983153,25.6379031 3.44413039,24.3893985 1.88745059,23.8574224 L1.88745059,23.8574224 Z" id="Path" fill="#FFCD53"></path>
                    <path d="M6.83222893,26.2666615 C7.3012508,27.6116219 6.37065185,28.9567129 5.06493989,29.1150126 C5.50209283,29.5245415 5.96171075,29.9103645 6.44274878,30.2691513 C7.19330132,30.5465677 7.78614183,30.5723633 8.08569673,30.5606736 C8.2311967,30.5549921 8.36311318,30.4767565 8.43690804,30.3512399 C8.67696992,29.9431478 9.04104635,28.8863792 7.8310718,27.2425822 C7.57873255,26.8997953 7.23352932,26.5734653 6.83222893,26.2666615 L6.83222893,26.2666615 Z" id="Path" fill="#FFB629"></path>
                    <path d="M12.0337873,21.5705 C11.9889879,21.2025706 11.5321781,21.059291 11.2883938,21.3384707 C10.2062215,22.577506 8.05428494,25.2615493 7.8336187,27.2419292 C7.60759744,29.2705043 8.45127519,30.0036204 8.86328563,30.2370211 C8.98997769,30.3087915 9.14331428,30.3106201 9.27216142,30.242768 C10.0439381,29.8365697 12.8065436,27.9197318 12.0337873,21.5705 L12.0337873,21.5705 Z" id="Path" fill="#FFE47D"></path>
                    <path d="M7.8336187,27.2419292 C7.88076905,26.8188822 8.01653854,26.3636397 8.21069087,25.8973606 C8.51246615,27.4831666 10.3713784,28.1713527 11.6316379,27.2088848 C10.930652,29.2003665 9.73837517,29.9974164 9.27216142,30.242768 C9.14331428,30.3105547 8.98997769,30.3087915 8.86328563,30.2370211 C8.45134049,30.0036204 7.60759744,29.270439 7.8336187,27.2419292 L7.8336187,27.2419292 Z" id="Path" fill="#FFCD53"></path>
                    <path d="M0.196895146,19.8696264 C0.0517217101,19.5286027 0.375700755,19.1760852 0.726389623,19.2959203 C2.28306943,19.8278963 5.48877057,21.0764009 6.67001084,22.6811454 C7.88005069,24.324877 7.51590896,25.3816456 7.27584708,25.789803 C7.20198691,25.9153196 7.07013573,25.9935552 6.92463577,25.9992367 C6.05313802,26.0333261 2.70232874,25.7546035 0.196895146,19.8696264 L0.196895146,19.8696264 Z" id="Path" fill="#FFCD53"></path>
                    <path d="M6.67001084,22.6811454 C6.41767158,22.3383584 6.07246835,22.0119631 5.67116796,21.7052246 C6.2026869,23.229513 4.93700702,24.7549117 3.36432745,24.5515513 C4.96717802,25.9257031 6.39821064,26.0198732 6.92463577,25.9992367 C7.07013573,25.9935552 7.20205222,25.9153196 7.27584708,25.789803 C7.51597426,25.3816456 7.88005069,24.324877 6.67001084,22.6811454 Z" id="Path" fill="#FFB629"></path>
                    <path d="M10.8115353,17.0089978 C10.766736,16.6410684 10.3099262,16.4977888 10.0661419,16.7769685 C8.98396962,18.0160039 6.83203301,20.7000471 6.61143208,22.680427 C6.38541082,24.7089368 7.22908856,25.4421182 7.641099,25.6755189 C7.76779107,25.7472893 7.92112766,25.7491179 8.0499748,25.6812658 C8.82175153,25.2750675 11.5842917,23.3582296 10.8115353,17.0089978 Z" id="Path" fill="#FFE47D"></path>
                    <path d="M6.61136678,22.680427 C6.65851712,22.25738 6.79428661,21.8021375 6.98837364,21.3358585 C7.29021422,22.9216644 9.14906114,23.6098505 10.4093207,22.6473826 C9.70826947,24.6388643 8.51599263,25.4359142 8.04984419,25.6812658 C7.92099705,25.7490526 7.76766046,25.7472893 7.64096839,25.6755189 C7.22902326,25.4421182 6.38534552,24.7090021 6.61136678,22.680427 Z" id="Path" fill="#FFCD53"></path>
                    <path d="M0.144063248,15.2876836 C0.0702030787,15.8379452 0.0239670046,16.3968923 0.00751009679,16.9633495 C2.24734749,21.2550759 4.94229674,21.4723463 5.68742896,21.4431549 C5.822676,21.4378652 5.94531915,21.3651805 6.0139549,21.2484801 C6.23710274,20.8691223 6.57557953,19.8867363 5.45076295,18.3587255 C4.40509625,16.938207 1.65404984,15.8184842 0.144063248,15.2876836 Z" id="Path" fill="#FFCD53"></path>
                    <path d="M5.45069764,18.3586602 C5.2161214,18.0400362 4.8952117,17.7366283 4.52218846,17.4514405 C5.01628752,18.8684325 3.83968392,20.2864694 2.37769665,20.0974109 C3.86769985,21.3748457 5.19803186,21.4623546 5.68736365,21.4431549 C5.8226107,21.4378652 5.94525384,21.3651152 6.0138896,21.2484801 C6.23710274,20.8691223 6.57557953,19.8867363 5.45069764,18.3586602 Z" id="Path" fill="#FFB629"></path>
                    <path d="M9.35758061,13.0858539 C9.3159812,12.7437853 8.89130155,12.610628 8.66462724,12.8701508 C7.6586661,14.0219385 5.65823754,16.5170538 5.45311394,18.3580724 C5.24302714,20.2438251 6.02734247,20.92535 6.4102921,21.1422939 C6.52803735,21.2090358 6.67059858,21.2106684 6.7903683,21.1476489 C7.50781111,20.7700543 10.0759377,18.9881369 9.35758061,13.0858539 L9.35758061,13.0858539 Z" id="Path" fill="#FFE47D"></path>
                    <path d="M5.45311394,18.3580724 C5.49693372,17.9648046 5.62316865,17.541627 5.80360689,17.1081311 C6.08415798,18.5823305 7.8121986,19.2220601 8.9837084,18.3273137 C8.33202791,20.1786505 7.22373354,20.9195379 6.7903683,21.1475836 C6.67059858,21.2106031 6.52803735,21.2089705 6.4102921,21.1422286 C6.02727716,20.9252847 5.24296184,20.2437598 5.45311394,18.3580724 L5.45311394,18.3580724 Z" id="Path" fill="#FFCD53"></path>
                    <path d="M0.84602873,12.2894571 C0.634309306,12.9129257 0.459879145,13.5536349 0.32567698,14.2089725 C2.10001898,17.0125896 4.05297067,17.164163 4.62798287,17.1416327 C4.74194042,17.1371919 4.84525323,17.0759356 4.90304832,16.977586 C5.09106196,16.6579824 5.37624973,15.8303045 4.42854082,14.5429433 C3.7274243,13.5905324 2.11608406,12.7986417 0.84602873,12.2894571 Z" id="Path" fill="#FFCD53"></path>
                    <path d="M4.42854082,14.5430086 C4.23092731,14.2745389 3.96056383,14.0189344 3.64624995,13.7786766 C4.06257053,14.9724555 3.07123776,16.1671486 1.83951658,16.0078693 C3.09487824,17.0840988 4.2156459,17.1578284 4.62791756,17.141698 C4.74187512,17.1372572 4.84518793,17.0759356 4.90298302,16.9776513 C5.09099666,16.6580477 5.37618442,15.8303698 4.42854082,14.5430086 L4.42854082,14.5430086 Z" id="Path" fill="#FFB629"></path>
                    <path d="M7.72005298,10.1006231 C7.68498409,9.81243125 7.32724226,9.70023694 7.13622458,9.91887871 C6.28869383,10.8893138 4.6032975,12.9914226 4.43049997,14.5424208 C4.2534576,16.1311655 4.91428082,16.7053287 5.23688845,16.8881179 C5.33608704,16.9443457 5.45618328,16.9457171 5.5570798,16.892624 C6.16160994,16.5745877 8.32523617,15.0732867 7.72005298,10.1006231 Z" id="Path" fill="#FFE47D"></path>
                    <path d="M4.43049997,14.5424208 C4.4673974,14.2111276 4.57377956,13.8545613 4.72581004,13.4893746 C4.96214952,14.731414 6.41799811,15.2703778 7.40508605,14.51656 C6.85606532,16.0763091 5.92226642,16.7004961 5.5571451,16.8926893 C5.45624858,16.9457824 5.33615234,16.944411 5.23688845,16.8881832 C4.91428082,16.705394 4.25352291,16.1311655 4.43049997,14.5424208 L4.43049997,14.5424208 Z" id="Path" fill="#FFCD53"></path>
                    <path d="M29.1189963,9.01714465 C28.8274086,8.93903965 28.6544151,8.63928883 28.7325201,8.34776646 L29.6249809,5.01694057 C29.7030859,4.7253529 30.0028367,4.55235946 30.2943591,4.63046446 C30.5859467,4.70856947 30.7589402,5.00832029 30.6808352,5.29984266 L29.7883091,8.63066854 C29.7102694,8.92225621 29.4105186,9.09524966 29.1189963,9.01714465 Z" id="Path" fill="#FFE47D"></path>
                    <path d="M23.6649681,31.4836319 L28.6634926,12.828878 C28.59982,12.858853 28.5354291,12.8873261 28.4697974,12.9129257 C28.206944,13.0154549 27.9097401,12.9357826 27.7333507,12.7155735 C27.6893351,12.6605865 27.6478009,12.6037057 27.6076383,12.5459106 L22.3628479,32.119835 C22.8075762,31.9268582 23.2421823,31.7148122 23.6649681,31.4836319 L23.6649681,31.4836319 Z" id="Path" fill="#FE9D09"></path>
                    <path d="M29.722155,8.23896801 C29.5457657,8.01875892 29.2485618,7.93908658 28.9857084,8.04161573 C28.1004965,8.38688427 27.3856006,9.13391033 27.1208534,10.1221085 C26.8560408,11.1103066 27.1015883,12.1147004 27.6956043,12.8563061 C27.8719937,13.0765152 28.1691976,13.1561876 28.432051,13.0536584 C29.3172628,12.7083899 30.0321587,11.9612985 30.296906,10.9731657 C30.5617185,9.98503287 30.316171,8.98063905 29.722155,8.23896801 L29.722155,8.23896801 Z" id="Path" fill="#FFE47D"></path>
                    <path d="M29.2626677,12.234013 C28.9085829,11.7919622 28.762234,11.1932442 28.9200767,10.6042567 C29.0779193,10.0152039 29.5039704,9.56995308 30.0316363,9.36411112 C30.1177738,9.33054426 30.2097235,9.33080548 30.2929223,9.35869079 C30.1807933,8.94994561 29.9861186,8.5684327 29.7222203,8.23890271 C29.545831,8.01869361 29.2486271,7.93902128 28.9857737,8.04155043 C28.1005618,8.38681896 27.3857312,9.13384503 27.1209187,10.1220432 C26.8561061,11.1102413 27.1016536,12.1146351 27.6956697,12.8562408 C27.872059,13.0764499 28.1692629,13.1561223 28.4321163,13.0535931 C28.8254494,12.9001912 29.1847586,12.667117 29.4862726,12.3691947 C29.4002004,12.3519542 29.3204628,12.3061752 29.2626677,12.234013 L29.2626677,12.234013 Z" id="Path" fill="#FFCD53"></path>
                    <path d="M19.5099907,26.1038557 C19.2661411,25.824676 18.8093966,25.9679556 18.7645972,26.335885 C18.3661703,29.6093729 18.9075503,31.7046246 19.6312624,33.0221568 C20.7884704,32.7536219 21.8976137,32.3596357 22.9434763,31.8550878 C22.6347787,29.891426 20.5647348,27.3114792 19.5099907,26.1038557 Z" id="Path" fill="#FFCD53"></path>
                    <path d="M22.5876936,30.6627456 C22.2858531,32.2485516 20.4270061,32.9367376 19.1667466,31.9742698 C19.3056507,32.3689743 19.4640811,32.7160714 19.6321114,33.0218956 C20.789254,32.7532954 21.8982668,32.3593092 22.9439335,31.8547613 C22.8842445,31.4756646 22.7587279,31.0735153 22.5876936,30.6627456 Z" id="Path" fill="#FFB629"></path>
                    <path d="M19.9797309,21.8010273 C20.0245303,21.4330979 20.4813401,21.2898183 20.7251243,21.568998 C21.8072966,22.8080334 23.9592332,25.4920766 24.1798995,27.4724565 C24.4059207,29.5010316 23.562243,30.2341477 23.1502325,30.4675484 C23.0235405,30.5393188 22.8702039,30.5411474 22.7413568,30.4732953 C21.9695147,30.067097 19.2069746,28.1502591 19.9797309,21.8010273 L19.9797309,21.8010273 Z" id="Path" fill="#FFCD53"></path>
                    <path d="M24.1798995,27.4723912 C24.1327491,27.0494095 23.9969796,26.594167 23.8028926,26.1278227 C23.5011173,27.7136286 21.6422051,28.4018147 20.3819456,27.4393468 C21.0829315,29.4308285 22.2752736,30.2278784 22.7414221,30.47323 C22.8702692,30.5410168 23.0236058,30.5392535 23.1502979,30.4674831 C23.5621777,30.2340824 24.4059207,29.5009663 24.1798995,27.4723912 Z" id="Path" fill="#FFB629"></path>
                    <path d="M30.1260676,24.0879498 C28.5693878,24.6199258 25.3637519,25.8684305 24.1824464,27.4731749 C22.9724718,29.1169065 23.3365483,30.1736751 23.5766101,30.5818325 C23.650405,30.7073491 23.7823215,30.7855847 23.9278214,30.7912662 C24.143851,30.7996906 24.5124335,30.78885 24.9826309,30.6781577 C27.3722784,29.0539523 29.2985855,26.7996171 30.524168,24.1543651 C30.4187654,24.0718194 30.2750287,24.0370117 30.1260676,24.0879498 L30.1260676,24.0879498 Z" id="Path" fill="#FFE47D"></path>
                    <path d="M25.1812239,26.4971888 C24.7799236,26.8039926 24.4347203,27.1303226 24.1824464,27.4731096 C22.9724065,29.1168412 23.3364829,30.1736098 23.5765448,30.5817019 C23.650405,30.7072185 23.7822562,30.7854541 23.9277561,30.7911356 C24.1439163,30.7996253 24.5126947,30.7885234 24.9831533,30.6776352 C25.5964996,30.2607269 26.1793485,29.8023498 26.7276508,29.3064875 C25.540729,29.0325322 24.7391731,27.7649585 25.1812239,26.4971888 Z" id="Path" fill="#FFCD53"></path>
                    <path d="M21.2019828,17.2395251 C21.2467822,16.8715957 21.703592,16.7283161 21.9473763,17.0074958 C23.0295486,18.2465312 25.1814852,20.9305745 25.4020861,22.9109543 C25.6281074,24.9395294 24.7844296,25.6726455 24.3724192,25.9060462 C24.2457271,25.9778166 24.0923905,25.9796452 23.9635434,25.9117931 C23.1917666,25.5055948 20.4292265,23.5887569 21.2019828,17.2395251 Z" id="Path" fill="#FFCD53"></path>
                    <path d="M25.4020861,22.9109543 C25.3549357,22.4879073 25.2191663,22.0326648 25.0250139,21.5663858 C24.7232386,23.1521917 22.8643264,23.8403778 21.6040669,22.8779099 C22.3050528,24.8693917 23.4973296,25.6664415 23.9635434,25.9117931 C24.0923905,25.9795799 24.2457271,25.9778166 24.3724192,25.9060462 C24.7844296,25.6726455 25.6281074,24.9394641 25.4020861,22.9109543 L25.4020861,22.9109543 Z" id="Path" fill="#FFB629"></path>
                    <path d="M31.7676441,20.1000884 C31.9128176,19.7590647 31.5889038,19.4065473 31.2381497,19.5264476 C29.6814699,20.0584237 26.475834,21.3069283 25.2945284,22.9116727 C24.0844886,24.5554043 24.4486303,25.6121729 24.6886922,26.0203303 C24.7625524,26.1458469 24.8944035,26.2240172 25.0399035,26.2297641 C25.911336,26.2638534 29.2622105,25.9850655 31.7676441,20.1000884 L31.7676441,20.1000884 Z" id="Path" fill="#FFE47D"></path>
                    <path d="M25.2944631,22.9116074 C25.5468024,22.5688204 25.8920056,22.2424904 26.293306,21.9356866 C25.7617871,23.4599751 27.0275323,24.9853737 28.6001465,24.7820133 C26.997296,26.1561651 25.5662633,26.2503352 25.0398382,26.2296988 C24.8943382,26.2240172 24.7624218,26.1457816 24.6886269,26.020265 C24.448565,25.6121729 24.0844886,24.5554043 25.2944631,22.9116074 L25.2944631,22.9116074 Z" id="Path" fill="#FFCD53"></path>
                    <path d="M22.6559376,13.3163812 C22.697537,12.9743126 23.1222166,12.8411553 23.3488909,13.1006782 C24.3548521,14.2524658 26.3553459,16.7475812 26.5604042,18.5885344 C26.770491,20.4742871 25.986241,21.1558121 25.6032261,21.3727559 C25.4854808,21.4394978 25.3429196,21.4411304 25.2231499,21.3781109 C24.5056418,21.0005163 21.9375805,19.2186642 22.6559376,13.3163812 L22.6559376,13.3163812 Z" id="Path" fill="#FFCD53"></path>
                    <path d="M26.5604042,18.5885344 C26.5165845,18.1952666 26.3903495,17.772089 26.2099113,17.3385931 C25.9293602,18.8127925 24.2013196,19.4525221 23.0298098,18.557841 C23.6814903,20.4091125 24.7898499,21.1500652 25.2231499,21.3781109 C25.3429196,21.4411304 25.4854808,21.4394978 25.6032914,21.3727559 C25.9861757,21.1558121 26.770491,20.4742871 26.5604042,18.5885344 Z" id="Path" fill="#FFB629"></path>
                    <path d="M31.9969307,17.2109215 C31.9890287,16.6371501 31.9511517,16.0706276 31.8843445,15.5129212 C30.3775579,16.0415668 27.6118831,17.163967 26.5627552,18.5891875 C25.4379386,20.1171983 25.7764154,21.0995843 25.9995633,21.4789421 C26.068199,21.5955772 26.1907769,21.6683272 26.3260239,21.6736169 C27.0702419,21.7028083 29.7589218,21.4859951 31.9969307,17.2109215 Z" id="Path" fill="#FFE47D"></path>
                    <path d="M26.5627552,18.5891875 C26.7973315,18.2705635 27.1182412,17.9671556 27.4912644,17.6819678 C26.9971653,19.0989598 28.1737689,20.5169967 29.6357562,20.3279382 C28.145753,21.605373 26.815421,21.6928819 26.3260892,21.6736822 C26.1908422,21.6683925 26.068199,21.5956425 25.9995633,21.4790074 C25.7764154,21.0995843 25.4379386,20.1171983 26.5627552,18.5891875 L26.5627552,18.5891875 Z" id="Path" fill="#FFCD53"></path>
                    <path d="M24.2934652,10.3311504 C24.3285341,10.0429586 24.6863412,9.93076425 24.8772936,10.149406 C25.7248243,11.1198411 27.4102207,13.2219499 27.5830182,14.7729481 C27.7600606,16.3616928 27.0992374,16.935856 26.7766297,17.1186452 C26.6773658,17.174873 26.5573349,17.1762444 26.4563731,17.1231513 C25.8518429,16.8050497 23.6882167,15.303814 24.2934652,10.3311504 L24.2934652,10.3311504 Z" id="Path" fill="#FFCD53"></path>
                    <path d="M27.5829529,14.7729481 C27.5460555,14.4416549 27.4396733,14.0850886 27.2876428,13.719902 C27.0513033,14.9619414 25.5954548,15.5009051 24.6083668,14.7470873 C25.1573875,16.3068364 26.0911865,16.9310234 26.4563078,17.1232166 C26.5572043,17.1763097 26.6773005,17.1749383 26.7765644,17.1187105 C27.0992374,16.9359213 27.7599953,16.3616928 27.5829529,14.7729481 L27.5829529,14.7729481 Z" id="Path" fill="#FFB629"></path>
                    <path d="M31.2220193,12.4982378 C29.9438661,13.0064428 28.2962162,13.8073456 27.5849774,14.7735359 C26.6373338,16.0608971 26.9224562,16.8885751 27.1104699,17.2081787 C27.1683302,17.306463 27.2715778,17.3677192 27.3855353,17.37216 C27.9630291,17.3947556 29.9306745,17.2416149 31.7112205,14.4022106 C31.5865528,13.7526852 31.4226368,13.1172657 31.2220193,12.4982378 L31.2220193,12.4982378 Z" id="Path" fill="#FFE47D"></path>
                    <path d="M27.5849774,14.7734706 C27.7825909,14.5050009 28.0529543,14.2493964 28.3672029,14.0091386 C27.9508823,15.2029175 28.9422151,16.3976106 30.1739363,16.2383313 C28.9185746,17.3145608 27.797807,17.3882904 27.3855353,17.37216 C27.2715778,17.3676539 27.1682649,17.3063977 27.1104699,17.2081134 C26.9224562,16.8885098 26.6373338,16.0608971 27.5849774,14.7734706 L27.5849774,14.7734706 Z" id="Path" fill="#FFCD53"></path>
                    <path d="M11.9352417,8.26580845 C11.6072138,8.26580845 11.341291,7.99988572 11.341291,7.67185775 L11.341291,4.38700672 C11.341291,4.05897875 11.6072138,3.79305602 11.9352417,3.79305602 C12.2632697,3.79305602 12.5291925,4.05897875 12.5291925,4.38700672 L12.5291925,7.67185775 C12.5292577,7.99988572 12.2632697,8.26580845 11.9352417,8.26580845 Z" id="Path" fill="#FFCD53"></path>
                    <path d="M20.0559421,8.26580845 C19.7279141,8.26580845 19.4619914,7.99988572 19.4619914,7.67185775 L19.4619914,4.38700672 C19.4619914,4.05897875 19.7279141,3.79305602 20.0559421,3.79305602 C20.38397,3.79305602 20.6498928,4.05897875 20.6498928,4.38700672 L20.6498928,7.67185775 C20.6499581,7.99988572 20.3840353,8.26580845 20.0559421,8.26580845 Z" id="Path" fill="#FFE47D"></path>
                    <path d="M15.9955919,4.93530909 C15.6675639,4.93530909 15.4016412,4.66938636 15.4016412,4.34135839 L15.4016412,0.593950699 C15.4016412,0.265922732 15.6675639,0 15.9955919,0 C16.3236199,0 16.5895426,0.265922732 16.5895426,0.593950699 L16.5895426,4.34129308 C16.5896079,4.66938636 16.3236199,4.93530909 15.9955919,4.93530909 Z" id="Path" fill="#FFE47D"></path>
                    <path d="M15.5813611,9.20731336 C15.5196477,9.16192626 15.4600893,9.11392694 15.4017065,9.06455622 L15.4017065,33.4239797 C15.6002996,33.4312938 15.7995457,33.436257 15.9999673,33.436257 C16.1975155,33.436257 16.3938229,33.4314244 16.5896732,33.4243062 L16.5896732,9.06455622 C16.5312904,9.11392694 16.471732,9.16192626 16.4100186,9.20731336 C16.1628385,9.38886179 15.8284106,9.38886179 15.5813611,9.20731336 L15.5813611,9.20731336 Z" id="Path" fill="#FE9D09"></path>
                    <path d="M16.409888,3.94880889 C16.1628385,3.76726047 15.8284106,3.76726047 15.5812958,3.94880889 C14.7491771,4.56019608 14.2089072,5.54545547 14.2089072,6.65727632 C14.2089072,7.76909718 14.7491771,8.75429127 15.5812958,9.36574375 C15.8284106,9.54729218 16.1627732,9.54729218 16.409888,9.36574375 C17.2420067,8.75435657 17.7822766,7.76909718 17.7822766,6.65727632 C17.7822766,5.54545547 17.2420067,4.56019608 16.409888,3.94880889 Z" id="Path" fill="#FFE47D"></path>
                    <path d="M17.051185,8.27162061 C16.5551921,7.90721765 16.2331722,7.31992808 16.2331722,6.65721102 C16.2331722,5.99449396 16.5551921,5.40726969 17.051185,5.04280143 C17.1321634,4.9833084 17.2287498,4.95770877 17.3238995,4.96365154 C17.0912171,4.56613885 16.7795807,4.22041318 16.409888,3.94874359 C16.1628385,3.76719516 15.8284106,3.76719516 15.5812958,3.94874359 C14.7491771,4.56013077 14.2089725,5.54539017 14.2089725,6.65714571 C14.2089725,7.76890126 14.7492424,8.75416065 15.5812958,9.36561314 C15.8284106,9.54716157 16.1627732,9.54716157 16.409888,9.36561314 C16.7795807,9.09394356 17.0912171,8.74821788 17.3238995,8.35070519 C17.2288151,8.35671327 17.1321634,8.33111364 17.051185,8.27162061 Z" id="Path" fill="#FFCD53"></path>
                    <path d="M10.7150143,25.5737734 C10.3805864,25.3493195 9.9413437,25.6281727 9.99783268,26.0269915 C10.5607634,30.0018571 11.9456906,32.092864 13.1934768,33.1905789 C14.1046801,33.3518827 15.0424627,33.436257 15.999902,33.436257 C16.0829702,33.436257 16.1656466,33.4343632 16.2484536,33.4331224 C16.4373162,32.8667305 16.4781973,32.0170447 16.0019265,30.7989723 C15.2132357,28.7822174 12.1994665,26.5700694 10.7150143,25.5737734 Z" id="Path" fill="#FFCD53"></path>
                    <path d="M15.2279294,29.4935868 C15.3571684,31.2431129 13.5994792,32.4883522 12.0058367,31.8324922 C12.3959699,32.4024106 12.8022987,32.8455063 13.1950442,33.1909054 C14.1057903,33.351948 15.0429851,33.436257 15.999902,33.436257 C16.0829702,33.436257 16.1656466,33.4343632 16.2484536,33.4331224 C16.4373162,32.8667305 16.4782626,32.0170447 16.0019265,30.798907 C15.8334391,30.3681539 15.5628797,29.9284541 15.2279294,29.4935868 Z" id="Path" fill="#FFB629"></path>
                    <path d="M21.2916469,25.5737734 C19.8072599,26.5700041 16.7934254,28.7822174 16.0047999,30.798907 C15.5284639,32.01711 15.5694102,32.8667305 15.7582728,33.4331877 C15.8387941,33.4343632 15.9191195,33.436257 15.999902,33.436257 C16.9602802,33.436257 17.9008708,33.3514256 18.8146863,33.1892728 C20.0620807,32.091166 21.4460936,30.0002245 22.0088284,26.0270568 C22.0653174,25.6281727 21.6260747,25.3493195 21.2916469,25.5737734 L21.2916469,25.5737734 Z" id="Path" fill="#FFE47D"></path>
                    <path d="M16.7787317,29.4935868 C16.4437814,29.9284541 16.173222,30.3681539 16.0047999,30.798907 C15.5284639,32.01711 15.5694102,32.8667958 15.7582728,33.4331877 C15.8387941,33.4343632 15.9191195,33.436257 15.999902,33.436257 C16.9597577,33.436257 17.8998259,33.3514909 18.813119,33.189534 C19.2054073,32.8443308 19.6111484,32.4016922 20.0007592,31.8325575 C18.4071819,32.4883522 16.6494928,31.2431129 16.7787317,29.4935868 L16.7787317,29.4935868 Z" id="Path" fill="#FFCD53"></path>
                    <path d="M9.99783268,20.9250235 C9.9413437,20.5262047 10.3805864,20.2472863 10.7150143,20.4718055 C12.1994665,21.4680362 15.2132357,23.6802495 16.0018612,25.696939 C16.8096864,27.7627381 16.1302512,28.7696135 15.7634973,29.13049 C15.6507152,29.2414435 15.4902603,29.2865041 15.3358789,29.2515658 C14.4114839,29.0421974 10.9725126,27.8070803 9.99783268,20.9250235 L9.99783268,20.9250235 Z" id="Path" fill="#FFCD53"></path>
                    <path d="M16.0018612,25.696939 C15.8334391,25.266186 15.5628144,24.8264862 15.2279294,24.3916189 C15.3571684,26.1411449 13.5994792,27.3863843 12.0058367,26.7305243 C13.3018181,28.623787 14.7775195,29.1251349 15.3358789,29.2515005 C15.490195,29.2864388 15.6506499,29.2414435 15.7634973,29.1304247 C16.1302512,28.7695482 16.8096864,27.7626728 16.0018612,25.696939 Z" id="Path" fill="#FFB629"></path>
                    <path d="M22.0088284,20.9250235 C22.0653174,20.5262047 21.6260747,20.2472863 21.2916469,20.4718055 C19.8071946,21.4680362 16.7934254,23.6802495 16.0047999,25.696939 C15.1969747,27.7627381 15.8764099,28.7696135 16.2432292,29.13049 C16.3560112,29.2414435 16.5164661,29.2865041 16.6707823,29.2515658 C17.5951772,29.0421974 21.0341485,27.8070803 22.0088284,20.9250235 Z" id="Path" fill="#FFE47D"></path>
                    <path d="M16.0047346,25.696939 C16.1731567,25.266186 16.4437814,24.8264862 16.7786664,24.3916189 C16.6494275,26.1411449 18.4071166,27.3863843 20.0007592,26.7305243 C18.7047777,28.623787 17.2290763,29.1251349 16.6707169,29.2515005 C16.5164008,29.2864388 16.3559459,29.2414435 16.2430986,29.1304247 C15.8763446,28.7695482 15.1969747,27.7626728 16.0047346,25.696939 Z" id="Path" fill="#FFCD53"></path>
                    <path d="M9.99783268,15.7930805 C9.9413437,15.3942617 10.3805864,15.1153433 10.7150143,15.3398625 C12.1994665,16.3360932 15.2132357,18.5482411 16.0018612,20.564996 C16.8096864,22.6307951 16.1302512,23.6376705 15.7634973,23.9984817 C15.6507152,24.1094352 15.4902603,24.1544304 15.3358789,24.1194922 C14.4114839,23.9102543 10.9725126,22.6752026 9.99783268,15.7930805 L9.99783268,15.7930805 Z" id="Path" fill="#FFCD53"></path>
                    <path d="M16.0018612,20.564996 C15.8334391,20.134243 15.5628144,19.6945431 15.2279294,19.2596759 C15.3571684,21.0092019 13.5994792,22.2544413 12.0058367,21.5985812 C13.3018181,23.4919093 14.7775195,23.9931919 15.3358789,24.1196228 C15.490195,24.1545611 15.6506499,24.1095658 15.7634973,23.998547 C16.1302512,23.6376705 16.8096864,22.6307298 16.0018612,20.564996 Z" id="Path" fill="#FFB629"></path>
                    <path d="M22.0088284,15.7930805 C22.0653174,15.3942617 21.6260747,15.1153433 21.2916469,15.3398625 C19.8071946,16.3360932 16.7934254,18.5482411 16.0047999,20.564996 C15.1969747,22.6307951 15.8764099,23.6376705 16.2432292,23.9984817 C16.3560112,24.1094352 16.5164661,24.1544304 16.6707823,24.1194922 C17.5951772,23.9102543 21.0341485,22.6752026 22.0088284,15.7930805 Z" id="Path" fill="#FFE47D"></path>
                    <path d="M16.0047346,20.564996 C16.1731567,20.134243 16.4437814,19.6945431 16.7786664,19.2596759 C16.6494275,21.0092019 18.4071166,22.2544413 20.0007592,21.5985812 C18.7047777,23.4919093 17.2290763,23.9931919 16.6707169,24.1196228 C16.5164008,24.1545611 16.3559459,24.1095658 16.2430986,23.998547 C15.8763446,23.6376705 15.1969747,22.6307298 16.0047346,20.564996 Z" id="Path" fill="#FFCD53"></path>
                    <path d="M10.4206185,11.2659942 C10.3681131,10.8952566 10.7764012,10.635995 11.0873192,10.8446451 C12.4672178,11.770738 15.2688758,13.8271984 16.0019918,15.7019798 C16.7529362,17.6223442 16.1213697,18.5582981 15.7804113,18.8937709 C15.6755312,18.9969531 15.5263741,19.0388137 15.3828986,19.0062917 C14.5235476,18.8117476 11.3266627,17.6636171 10.4206185,11.2659942 L10.4206185,11.2659942 Z" id="Path" fill="#FFCD53"></path>
                    <path d="M16.0019918,15.7019798 C15.84539,15.3015283 15.5938344,14.8927832 15.2825245,14.488544 C15.4026861,16.1149045 13.7686849,17.272439 12.287302,16.662815 C13.4920522,18.4228552 14.863853,18.8888077 15.3828986,19.0063571 C15.5263741,19.0388137 15.6755312,18.9970184 15.7804113,18.8938362 C16.1213044,18.5583635 16.7529362,17.6223442 16.0019918,15.7019798 L16.0019918,15.7019798 Z" id="Path" fill="#FFB629"></path>
                    <path d="M21.5860426,11.2659942 C21.638548,10.8952566 21.23026,10.635995 20.919342,10.8446451 C19.5394433,11.770738 16.7377854,13.8271984 16.0046693,15.7019798 C15.2537249,17.6223442 15.8852914,18.5582981 16.2263151,18.8937709 C16.3311953,18.9969531 16.480287,19.0388137 16.6237625,19.0062917 C17.4831135,18.8117476 20.6799984,17.6636171 21.5860426,11.2659942 Z" id="Path" fill="#FFE47D"></path>
                    <path d="M16.0046693,15.7019798 C16.1612712,15.3015283 16.4128268,14.8927832 16.7241366,14.488544 C16.603975,16.1149045 18.2379762,17.272439 19.7193591,16.662815 C18.514609,18.4228552 17.1428082,18.8888077 16.6236972,19.0063571 C16.4802217,19.0388137 16.3310647,18.9970184 16.2261845,18.8938362 C15.8852914,18.5583635 15.2537249,17.6223442 16.0046693,15.7019798 L16.0046693,15.7019798 Z" id="Path" fill="#FFCD53"></path>
                    <path d="M11.2998876,7.67185775 C11.2556759,7.35950303 11.5996384,7.14105717 11.8615775,7.31685874 C13.0241405,8.09712514 15.3845965,9.82967182 16.0021877,11.4091431 C16.6348644,13.0270139 16.1027577,13.8156394 15.8154802,14.0982149 C15.7271223,14.1851361 15.6014751,14.2204009 15.4805952,14.1930381 C14.7566218,14.0291873 12.0632399,13.0618216 11.2998876,7.67185775 L11.2998876,7.67185775 Z" id="Path" fill="#FFCD53"></path>
                    <path d="M16.0021877,11.4091431 C15.8702712,11.0717765 15.6583559,10.7274223 15.396025,10.3867904 C15.497248,11.7570239 14.1206146,12.7322916 12.8725018,12.218601 C13.8875404,13.7014206 15.0432463,14.0940354 15.4805952,14.1930381 C15.6014751,14.2204009 15.7271223,14.1851361 15.8154802,14.0982149 C16.1027577,13.8156394 16.6348644,13.0270792 16.0021877,11.4091431 L16.0021877,11.4091431 Z" id="Path" fill="#FFB629"></path>
                    <path d="M20.7067736,7.67185775 C20.7509852,7.35950303 20.4070228,7.14105717 20.1450836,7.31685874 C18.9825207,8.09712514 16.6220646,9.82967182 16.0044734,11.4091431 C15.3717967,13.0270139 15.9039034,13.8156394 16.1911809,14.0982149 C16.2795389,14.1851361 16.405186,14.2204009 16.526066,14.1930381 C17.2500393,14.0291873 19.9434212,13.0618216 20.7067736,7.67185775 L20.7067736,7.67185775 Z" id="Path" fill="#FFE47D"></path>
                    <path d="M16.0044734,11.4091431 C16.1363899,11.0717765 16.3483052,10.7274223 16.6106362,10.3867904 C16.5094131,11.7570239 17.8860465,12.7322916 19.1341593,12.218601 C18.1191207,13.7014206 16.9634148,14.0940354 16.526066,14.1930381 C16.405186,14.2204009 16.2795389,14.1851361 16.1911809,14.0982149 C15.9039034,13.8156394 15.3717967,13.0270792 16.0044734,11.4091431 L16.0044734,11.4091431 Z" id="Path" fill="#FFCD53"></path>
                </g>
                <g id="RICETABLE" transform="translate(41.464000, 4.936000)" fill="#A83731">
                    <path d="M5.184,24.064 L5.184,15.776 L9.184,15.776 L12.736,24.064 L18.4,24.064 L14.24,14.656 C16.864,13.312 18.176,11.136 18.176,8.064 C18.176,3.168 14.912,0.384 9.152,0.384 L5.68434189e-14,0.384 L5.68434189e-14,24.064 L5.184,24.064 Z M5.184,4.992 L9.152,4.992 C11.456,4.992 12.704,6.08 12.704,8.064 C12.704,10.08 11.392,11.232 9.12,11.232 L5.184,11.232 L5.184,4.992 Z" id="Shape"></path>
                    <polygon id="Path" points="27.2 0.384 22.016 0.384 22.016 24.064 27.2 24.064"></polygon>
                    <path d="M42.368,24.448 C48.288,24.448 52.704,20.96 53.536,15.68 L48.16,15.68 C47.52,18.016 45.376,19.456 42.464,19.456 C38.656,19.456 36.288,16.672 36.288,12.224 C36.288,7.712 38.624,4.992 42.464,4.992 C45.312,4.992 47.328,6.336 48.032,8.704 L53.504,8.704 C52.768,3.392 48.512,5.68434189e-14 42.592,5.68434189e-14 C35.52,5.68434189e-14 30.816,4.864 30.816,12.256 C30.816,19.744 35.264,24.448 42.368,24.448 Z" id="Path"></path>
                    <polygon id="Path" points="72.032 24.064 72.032 19.264 62.176 19.264 62.176 14.368 70.912 14.368 70.912 9.824 62.176 9.824 62.176 5.184 72.032 5.184 72.032 0.384 56.992 0.384 56.992 24.064"></polygon>
                    <polygon id="Path" points="74.464 5.184 81.184 5.184 81.184 24.064 86.368 24.064 86.368 5.184 93.088 5.184 93.088 0.384 74.464 0.384"></polygon>
                    <path d="M97.344,24.064 L99.04,19.072 L106.688,19.072 L108.352,24.064 L113.856,24.064 L105.44,0.384 L100.384,0.384 L91.936,24.064 L97.344,24.064 Z M102.24,9.664 C102.528,8.8 102.784,7.904 102.88,7.36 C102.976,7.936 103.264,8.864 103.52,9.664 L105.216,14.72 L100.544,14.72 L102.24,9.664 Z" id="Shape"></path>
                    <path d="M116.608,24.064 L126.464,24.064 C131.584,24.064 134.4,21.728 134.4,17.536 C134.4,14.848 133.152,13.024 130.816,12.256 C132.96,11.328 134.112,9.472 134.112,6.944 C134.112,2.88 131.232,0.384 126.464,0.384 L116.608,0.384 L116.608,24.064 Z M125.92,4.928 C127.808,4.928 128.8,5.792 128.8,7.456 C128.8,9.152 127.776,10.08 125.92,10.08 L121.792,10.08 L121.792,4.928 L125.92,4.928 Z M126.176,14.432 C128.064,14.432 129.088,15.296 129.088,16.896 C129.088,18.656 128.096,19.52 126.176,19.52 L121.792,19.52 L121.792,14.432 L126.176,14.432 Z" id="Shape"></path>
                    <polygon id="Path" points="143.072 0.384 137.888 0.384 137.888 24.064 152.416 24.064 152.416 19.264 143.072 19.264"></polygon>
                    <polygon id="Path" points="170.72 24.064 170.72 19.264 160.864 19.264 160.864 14.368 169.6 14.368 169.6 9.824 160.864 9.824 160.864 5.184 170.72 5.184 170.72 0.384 155.68 0.384 155.68 24.064"></polygon>
                </g>
            </g>
        </g>
    </g>
</svg>